<mxfile host="Electron" modified="2023-05-27T16:22:01.508Z" agent="Mozilla/5.0 (Macintosh; Intel Mac OS X 10_15_7) AppleWebKit/537.36 (KHTML, like Gecko) draw.io/21.2.1 Chrome/112.0.5615.87 Electron/24.1.2 Safari/537.36" etag="Sp1o9Doh7gcC3E25XauB" version="21.2.1" type="device">
  <diagram name="Page-1" id="H1nZVYqxkzLZFgEqRADx">
    <mxGraphModel dx="2662" dy="5380" grid="1" gridSize="10" guides="1" tooltips="1" connect="1" arrows="1" fold="1" page="1" pageScale="1" pageWidth="850" pageHeight="1100" math="0" shadow="0">
      <root>
        <mxCell id="0" />
        <mxCell id="1" parent="0" />
        <mxCell id="AsBp8XiL8Dx4Y6rQVwFH-4966" value="R, W: 136, H: 124, ORDER: 16, GC: {47, 26, 31, 21, 5, 32, 16, 19, 1, 33, 77, 7, 4, 15, 11, 59} " style="text;html=1;strokeColor=none;fillColor=none;align=center;verticalAlign=middle;whiteSpace=wrap;rounded=0;fontSize=32;" parent="1" vertex="1">
          <mxGeometry x="1460" width="1360" height="30" as="geometry" />
        </mxCell>
        <mxCell id="AsBp8XiL8Dx4Y6rQVwFH-6545" value="R, W: 136, H: 97, ORDER: 17, GC: {42, 29, 20, 19, 26, 12, 7, 9, 11, 33, 13, 25, 23, 55, 43, 5, 38} " style="text;html=1;strokeColor=none;fillColor=none;align=center;verticalAlign=middle;whiteSpace=wrap;rounded=0;fontSize=32;" parent="1" vertex="1">
          <mxGeometry x="1480" y="1410" width="1360" height="30" as="geometry" />
        </mxCell>
        <mxCell id="AsBp8XiL8Dx4Y6rQVwFH-6581" value="R, W: 136, H: 90, ORDER: 17, GC: {39, 23, 33, 16, 7, 4, 3, 41, 1, 6, 5, 21, 8, 49, 51, 15, 36} " style="text;html=1;strokeColor=none;fillColor=none;align=center;verticalAlign=middle;whiteSpace=wrap;rounded=0;fontSize=32;" parent="1" vertex="1">
          <mxGeometry x="1440" y="2530" width="1360" height="30" as="geometry" />
        </mxCell>
        <mxCell id="AsBp8XiL8Dx4Y6rQVwFH-8351" value="R, W: 136, H: 115, ORDER: 18, GC: {57, 34, 45, 23, 11, 10, 13, 7, 3, 33, 16, 58, 17, 5, 12, 41, 4, 37} " style="text;html=1;strokeColor=none;fillColor=none;align=center;verticalAlign=middle;whiteSpace=wrap;rounded=0;fontSize=32;" parent="1" vertex="1">
          <mxGeometry x="1460" y="3600" width="1360" height="30" as="geometry" />
        </mxCell>
        <mxCell id="AsBp8XiL8Dx4Y6rQVwFH-8427" value="R, W: 136, H: 115, ORDER: 18, GC: {57, 34, 45, 23, 11, 10, 17, 3, 7, 29, 58, 21, 1, 4, 16, 12, 41, 37} " style="text;html=1;strokeColor=none;fillColor=none;align=center;verticalAlign=middle;whiteSpace=wrap;rounded=0;fontSize=32;" parent="1" vertex="1">
          <mxGeometry x="1460" y="4890" width="1360" height="30" as="geometry" />
        </mxCell>
        <mxCell id="AsBp8XiL8Dx4Y6rQVwFH-8503" value="R, W: 136, H: 91, ORDER: 18, GC: {38, 23, 25, 15, 8, 24, 26, 1, 21, 2, 6, 20, 14, 28, 53, 46, 9, 37} " style="text;html=1;strokeColor=none;fillColor=none;align=center;verticalAlign=middle;whiteSpace=wrap;rounded=0;fontSize=32;" parent="1" vertex="1">
          <mxGeometry x="1450" y="6210" width="1360" height="30" as="geometry" />
        </mxCell>
        <mxCell id="AsBp8XiL8Dx4Y6rQVwFH-17753" value="R, W: 136, H: 100, ORDER: 20, GC: {30, 23, 47, 8, 15, 26, 3, 1, 2, 7, 5, 18, 9, 36, 11, 25, 53, 14, 39, 44} " style="text;html=1;strokeColor=none;fillColor=none;align=center;verticalAlign=middle;whiteSpace=wrap;rounded=0;fontSize=32;" parent="1" vertex="1">
          <mxGeometry x="1450" y="7240" width="1360" height="30" as="geometry" />
        </mxCell>
        <mxCell id="AsBp8XiL8Dx4Y6rQVwFH-39696" value="R, W: 136, H: 112, ORDER: 22, GC: {27, 13, 15, 11, 2, 40, 17, 3, 8, 30, 25, 41, 29, 10, 1, 9, 33, 19, 55, 43, 5, 38} " style="text;html=1;strokeColor=none;fillColor=none;align=center;verticalAlign=middle;whiteSpace=wrap;rounded=0;fontSize=32;" parent="1" vertex="1">
          <mxGeometry x="1460" y="8400" width="1360" height="30" as="geometry" />
        </mxCell>
        <mxCell id="AsBp8XiL8Dx4Y6rQVwFH-41007" value="R, W: 136, H: 100, ORDER: 22, GC: {48, 25, 11, 8, 13, 3, 5, 14, 31, 18, 23, 16, 10, 39, 26, 52, 19, 33, 12, 9, 30, 21} " style="text;html=1;strokeColor=none;fillColor=none;align=center;verticalAlign=middle;whiteSpace=wrap;rounded=0;fontSize=32;" parent="1" vertex="1">
          <mxGeometry x="1470" y="9650" width="1360" height="30" as="geometry" />
        </mxCell>
        <mxCell id="8HHy5O0NlRH73B9iPDyi-1" value="" style="group;flipV=1;" vertex="1" connectable="0" parent="1">
          <mxGeometry x="1460" y="50" width="1360" height="1240" as="geometry" />
        </mxCell>
        <mxCell id="761dnnyQ54j-Cl0NHfQN-4967" value="47" style="rounded=0;whiteSpace=wrap;html=1;fontSize=32;" parent="8HHy5O0NlRH73B9iPDyi-1" vertex="1">
          <mxGeometry y="770" width="470" height="470" as="geometry" />
        </mxCell>
        <mxCell id="761dnnyQ54j-Cl0NHfQN-4968" value="26" style="rounded=0;whiteSpace=wrap;html=1;fontSize=32;" parent="8HHy5O0NlRH73B9iPDyi-1" vertex="1">
          <mxGeometry x="470" y="980" width="260" height="260" as="geometry" />
        </mxCell>
        <mxCell id="761dnnyQ54j-Cl0NHfQN-4969" value="31" style="rounded=0;whiteSpace=wrap;html=1;fontSize=32;" parent="8HHy5O0NlRH73B9iPDyi-1" vertex="1">
          <mxGeometry x="730" y="930" width="310" height="310" as="geometry" />
        </mxCell>
        <mxCell id="761dnnyQ54j-Cl0NHfQN-4970" value="21" style="rounded=0;whiteSpace=wrap;html=1;fontSize=32;" parent="8HHy5O0NlRH73B9iPDyi-1" vertex="1">
          <mxGeometry x="470" y="770" width="210" height="210" as="geometry" />
        </mxCell>
        <mxCell id="761dnnyQ54j-Cl0NHfQN-4971" value="5" style="rounded=0;whiteSpace=wrap;html=1;fontSize=32;" parent="8HHy5O0NlRH73B9iPDyi-1" vertex="1">
          <mxGeometry x="680" y="930" width="50" height="50" as="geometry" />
        </mxCell>
        <mxCell id="761dnnyQ54j-Cl0NHfQN-4972" value="32" style="rounded=0;whiteSpace=wrap;html=1;fontSize=32;" parent="8HHy5O0NlRH73B9iPDyi-1" vertex="1">
          <mxGeometry x="1040" y="920" width="320" height="320" as="geometry" />
        </mxCell>
        <mxCell id="761dnnyQ54j-Cl0NHfQN-4973" value="16" style="rounded=0;whiteSpace=wrap;html=1;fontSize=32;" parent="8HHy5O0NlRH73B9iPDyi-1" vertex="1">
          <mxGeometry x="680" y="770" width="160" height="160" as="geometry" />
        </mxCell>
        <mxCell id="761dnnyQ54j-Cl0NHfQN-4974" value="19" style="rounded=0;whiteSpace=wrap;html=1;fontSize=32;" parent="8HHy5O0NlRH73B9iPDyi-1" vertex="1">
          <mxGeometry x="840" y="740" width="190" height="190" as="geometry" />
        </mxCell>
        <mxCell id="761dnnyQ54j-Cl0NHfQN-4975" value="1" style="rounded=0;whiteSpace=wrap;html=1;fontSize=32;" parent="8HHy5O0NlRH73B9iPDyi-1" vertex="1">
          <mxGeometry x="1030" y="920" width="10" height="10" as="geometry" />
        </mxCell>
        <mxCell id="761dnnyQ54j-Cl0NHfQN-4976" value="33" style="rounded=0;whiteSpace=wrap;html=1;fontSize=32;" parent="8HHy5O0NlRH73B9iPDyi-1" vertex="1">
          <mxGeometry x="1030" y="590" width="330" height="330" as="geometry" />
        </mxCell>
        <mxCell id="761dnnyQ54j-Cl0NHfQN-4977" value="77" style="rounded=0;whiteSpace=wrap;html=1;fontSize=32;" parent="8HHy5O0NlRH73B9iPDyi-1" vertex="1">
          <mxGeometry width="770" height="770" as="geometry" />
        </mxCell>
        <mxCell id="761dnnyQ54j-Cl0NHfQN-4978" value="7" style="rounded=0;whiteSpace=wrap;html=1;fontSize=32;" parent="8HHy5O0NlRH73B9iPDyi-1" vertex="1">
          <mxGeometry x="770" y="700" width="70" height="70" as="geometry" />
        </mxCell>
        <mxCell id="761dnnyQ54j-Cl0NHfQN-4979" value="4" style="rounded=0;whiteSpace=wrap;html=1;fontSize=32;" parent="8HHy5O0NlRH73B9iPDyi-1" vertex="1">
          <mxGeometry x="840" y="700" width="40" height="40" as="geometry" />
        </mxCell>
        <mxCell id="761dnnyQ54j-Cl0NHfQN-4980" value="15" style="rounded=0;whiteSpace=wrap;html=1;fontSize=32;" parent="8HHy5O0NlRH73B9iPDyi-1" vertex="1">
          <mxGeometry x="880" y="590" width="150" height="150" as="geometry" />
        </mxCell>
        <mxCell id="761dnnyQ54j-Cl0NHfQN-4981" value="11" style="rounded=0;whiteSpace=wrap;html=1;fontSize=32;" parent="8HHy5O0NlRH73B9iPDyi-1" vertex="1">
          <mxGeometry x="770" y="590" width="110" height="110" as="geometry" />
        </mxCell>
        <mxCell id="761dnnyQ54j-Cl0NHfQN-4982" value="59" style="rounded=0;whiteSpace=wrap;html=1;fontSize=32;" parent="8HHy5O0NlRH73B9iPDyi-1" vertex="1">
          <mxGeometry x="770" width="590" height="590" as="geometry" />
        </mxCell>
        <mxCell id="8HHy5O0NlRH73B9iPDyi-2" value="" style="group;flipV=1;" vertex="1" connectable="0" parent="1">
          <mxGeometry x="1440" y="1470" width="1360" height="970" as="geometry" />
        </mxCell>
        <mxCell id="761dnnyQ54j-Cl0NHfQN-6546" value="42" style="rounded=0;whiteSpace=wrap;html=1;fontSize=32;" parent="8HHy5O0NlRH73B9iPDyi-2" vertex="1">
          <mxGeometry y="550" width="420" height="420" as="geometry" />
        </mxCell>
        <mxCell id="761dnnyQ54j-Cl0NHfQN-6547" value="29" style="rounded=0;whiteSpace=wrap;html=1;fontSize=32;" parent="8HHy5O0NlRH73B9iPDyi-2" vertex="1">
          <mxGeometry x="420" y="680" width="290" height="290" as="geometry" />
        </mxCell>
        <mxCell id="761dnnyQ54j-Cl0NHfQN-6548" value="20" style="rounded=0;whiteSpace=wrap;html=1;fontSize=32;" parent="8HHy5O0NlRH73B9iPDyi-2" vertex="1">
          <mxGeometry x="710" y="770" width="200" height="200" as="geometry" />
        </mxCell>
        <mxCell id="761dnnyQ54j-Cl0NHfQN-6549" value="19" style="rounded=0;whiteSpace=wrap;html=1;fontSize=32;" parent="8HHy5O0NlRH73B9iPDyi-2" vertex="1">
          <mxGeometry x="910" y="780" width="190" height="190" as="geometry" />
        </mxCell>
        <mxCell id="761dnnyQ54j-Cl0NHfQN-6550" value="26" style="rounded=0;whiteSpace=wrap;html=1;fontSize=32;" parent="8HHy5O0NlRH73B9iPDyi-2" vertex="1">
          <mxGeometry x="1100" y="710" width="260" height="260" as="geometry" />
        </mxCell>
        <mxCell id="761dnnyQ54j-Cl0NHfQN-6551" value="12" style="rounded=0;whiteSpace=wrap;html=1;fontSize=32;" parent="8HHy5O0NlRH73B9iPDyi-2" vertex="1">
          <mxGeometry x="910" y="660" width="120" height="120" as="geometry" />
        </mxCell>
        <mxCell id="761dnnyQ54j-Cl0NHfQN-6552" value="7" style="rounded=0;whiteSpace=wrap;html=1;fontSize=32;" parent="8HHy5O0NlRH73B9iPDyi-2" vertex="1">
          <mxGeometry x="1030" y="710" width="70" height="70" as="geometry" />
        </mxCell>
        <mxCell id="761dnnyQ54j-Cl0NHfQN-6553" value="9" style="rounded=0;whiteSpace=wrap;html=1;fontSize=32;" parent="8HHy5O0NlRH73B9iPDyi-2" vertex="1">
          <mxGeometry x="710" y="680" width="90" height="90" as="geometry" />
        </mxCell>
        <mxCell id="761dnnyQ54j-Cl0NHfQN-6554" value="11" style="rounded=0;whiteSpace=wrap;html=1;fontSize=32;" parent="8HHy5O0NlRH73B9iPDyi-2" vertex="1">
          <mxGeometry x="800" y="660" width="110" height="110" as="geometry" />
        </mxCell>
        <mxCell id="761dnnyQ54j-Cl0NHfQN-6555" value="33" style="rounded=0;whiteSpace=wrap;html=1;fontSize=32;" parent="8HHy5O0NlRH73B9iPDyi-2" vertex="1">
          <mxGeometry x="1030" y="380" width="330" height="330" as="geometry" />
        </mxCell>
        <mxCell id="761dnnyQ54j-Cl0NHfQN-6556" value="13" style="rounded=0;whiteSpace=wrap;html=1;fontSize=32;" parent="8HHy5O0NlRH73B9iPDyi-2" vertex="1">
          <mxGeometry x="420" y="550" width="130" height="130" as="geometry" />
        </mxCell>
        <mxCell id="761dnnyQ54j-Cl0NHfQN-6557" value="25" style="rounded=0;whiteSpace=wrap;html=1;fontSize=32;" parent="8HHy5O0NlRH73B9iPDyi-2" vertex="1">
          <mxGeometry x="550" y="430" width="250" height="250" as="geometry" />
        </mxCell>
        <mxCell id="761dnnyQ54j-Cl0NHfQN-6558" value="23" style="rounded=0;whiteSpace=wrap;html=1;fontSize=32;" parent="8HHy5O0NlRH73B9iPDyi-2" vertex="1">
          <mxGeometry x="800" y="430" width="230" height="230" as="geometry" />
        </mxCell>
        <mxCell id="761dnnyQ54j-Cl0NHfQN-6559" value="55" style="rounded=0;whiteSpace=wrap;html=1;fontSize=32;" parent="8HHy5O0NlRH73B9iPDyi-2" vertex="1">
          <mxGeometry width="550" height="550" as="geometry" />
        </mxCell>
        <mxCell id="761dnnyQ54j-Cl0NHfQN-6560" value="43" style="rounded=0;whiteSpace=wrap;html=1;fontSize=32;" parent="8HHy5O0NlRH73B9iPDyi-2" vertex="1">
          <mxGeometry x="550" width="430" height="430" as="geometry" />
        </mxCell>
        <mxCell id="761dnnyQ54j-Cl0NHfQN-6561" value="5" style="rounded=0;whiteSpace=wrap;html=1;fontSize=32;" parent="8HHy5O0NlRH73B9iPDyi-2" vertex="1">
          <mxGeometry x="980" y="380" width="50" height="50" as="geometry" />
        </mxCell>
        <mxCell id="761dnnyQ54j-Cl0NHfQN-6562" value="38" style="rounded=0;whiteSpace=wrap;html=1;fontSize=32;" parent="8HHy5O0NlRH73B9iPDyi-2" vertex="1">
          <mxGeometry x="980" width="380" height="380" as="geometry" />
        </mxCell>
        <mxCell id="8HHy5O0NlRH73B9iPDyi-3" value="" style="group;flipV=1;" vertex="1" connectable="0" parent="1">
          <mxGeometry x="1440" y="2580" width="1360" height="900" as="geometry" />
        </mxCell>
        <mxCell id="761dnnyQ54j-Cl0NHfQN-6582" value="39" style="rounded=0;whiteSpace=wrap;html=1;fontSize=32;" parent="8HHy5O0NlRH73B9iPDyi-3" vertex="1">
          <mxGeometry y="510" width="390" height="390" as="geometry" />
        </mxCell>
        <mxCell id="761dnnyQ54j-Cl0NHfQN-6583" value="23" style="rounded=0;whiteSpace=wrap;html=1;fontSize=32;" parent="8HHy5O0NlRH73B9iPDyi-3" vertex="1">
          <mxGeometry x="390" y="670" width="230" height="230" as="geometry" />
        </mxCell>
        <mxCell id="761dnnyQ54j-Cl0NHfQN-6584" value="33" style="rounded=0;whiteSpace=wrap;html=1;fontSize=32;" parent="8HHy5O0NlRH73B9iPDyi-3" vertex="1">
          <mxGeometry x="620" y="570" width="330" height="330" as="geometry" />
        </mxCell>
        <mxCell id="761dnnyQ54j-Cl0NHfQN-6585" value="16" style="rounded=0;whiteSpace=wrap;html=1;fontSize=32;" parent="8HHy5O0NlRH73B9iPDyi-3" vertex="1">
          <mxGeometry x="390" y="510" width="160" height="160" as="geometry" />
        </mxCell>
        <mxCell id="761dnnyQ54j-Cl0NHfQN-6586" value="7" style="rounded=0;whiteSpace=wrap;html=1;fontSize=32;" parent="8HHy5O0NlRH73B9iPDyi-3" vertex="1">
          <mxGeometry x="550" y="600" width="70" height="70" as="geometry" />
        </mxCell>
        <mxCell id="761dnnyQ54j-Cl0NHfQN-6587" value="4" style="rounded=0;whiteSpace=wrap;html=1;fontSize=32;" parent="8HHy5O0NlRH73B9iPDyi-3" vertex="1">
          <mxGeometry x="550" y="560" width="40" height="40" as="geometry" />
        </mxCell>
        <mxCell id="761dnnyQ54j-Cl0NHfQN-6588" value="3" style="rounded=0;whiteSpace=wrap;html=1;fontSize=32;" parent="8HHy5O0NlRH73B9iPDyi-3" vertex="1">
          <mxGeometry x="590" y="570" width="30" height="30" as="geometry" />
        </mxCell>
        <mxCell id="761dnnyQ54j-Cl0NHfQN-6589" value="41" style="rounded=0;whiteSpace=wrap;html=1;fontSize=32;" parent="8HHy5O0NlRH73B9iPDyi-3" vertex="1">
          <mxGeometry x="950" y="490" width="410" height="410" as="geometry" />
        </mxCell>
        <mxCell id="761dnnyQ54j-Cl0NHfQN-6590" value="1" style="rounded=0;whiteSpace=wrap;html=1;fontSize=32;" parent="8HHy5O0NlRH73B9iPDyi-3" vertex="1">
          <mxGeometry x="590" y="560" width="10" height="10" as="geometry" />
        </mxCell>
        <mxCell id="761dnnyQ54j-Cl0NHfQN-6591" value="6" style="rounded=0;whiteSpace=wrap;html=1;fontSize=32;" parent="8HHy5O0NlRH73B9iPDyi-3" vertex="1">
          <mxGeometry x="600" y="510" width="60" height="60" as="geometry" />
        </mxCell>
        <mxCell id="761dnnyQ54j-Cl0NHfQN-6592" value="5" style="rounded=0;whiteSpace=wrap;html=1;fontSize=32;" parent="8HHy5O0NlRH73B9iPDyi-3" vertex="1">
          <mxGeometry x="550" y="510" width="50" height="50" as="geometry" />
        </mxCell>
        <mxCell id="761dnnyQ54j-Cl0NHfQN-6593" value="21" style="rounded=0;whiteSpace=wrap;html=1;fontSize=32;" parent="8HHy5O0NlRH73B9iPDyi-3" vertex="1">
          <mxGeometry x="660" y="360" width="210" height="210" as="geometry" />
        </mxCell>
        <mxCell id="761dnnyQ54j-Cl0NHfQN-6594" value="8" style="rounded=0;whiteSpace=wrap;html=1;fontSize=32;" parent="8HHy5O0NlRH73B9iPDyi-3" vertex="1">
          <mxGeometry x="870" y="490" width="80" height="80" as="geometry" />
        </mxCell>
        <mxCell id="761dnnyQ54j-Cl0NHfQN-6595" value="49" style="rounded=0;whiteSpace=wrap;html=1;fontSize=32;" parent="8HHy5O0NlRH73B9iPDyi-3" vertex="1">
          <mxGeometry x="870" width="490" height="490" as="geometry" />
        </mxCell>
        <mxCell id="761dnnyQ54j-Cl0NHfQN-6596" value="51" style="rounded=0;whiteSpace=wrap;html=1;fontSize=32;" parent="8HHy5O0NlRH73B9iPDyi-3" vertex="1">
          <mxGeometry width="510" height="510" as="geometry" />
        </mxCell>
        <mxCell id="761dnnyQ54j-Cl0NHfQN-6597" value="15" style="rounded=0;whiteSpace=wrap;html=1;fontSize=32;" parent="8HHy5O0NlRH73B9iPDyi-3" vertex="1">
          <mxGeometry x="510" y="360" width="150" height="150" as="geometry" />
        </mxCell>
        <mxCell id="761dnnyQ54j-Cl0NHfQN-6598" value="36" style="rounded=0;whiteSpace=wrap;html=1;fontSize=32;" parent="8HHy5O0NlRH73B9iPDyi-3" vertex="1">
          <mxGeometry x="510" width="360" height="360" as="geometry" />
        </mxCell>
        <mxCell id="8HHy5O0NlRH73B9iPDyi-4" value="" style="group;flipV=1;" vertex="1" connectable="0" parent="1">
          <mxGeometry x="1460" y="3650" width="1360" height="1150" as="geometry" />
        </mxCell>
        <mxCell id="761dnnyQ54j-Cl0NHfQN-8352" value="57" style="rounded=0;whiteSpace=wrap;html=1;fontSize=32;" parent="8HHy5O0NlRH73B9iPDyi-4" vertex="1">
          <mxGeometry y="580" width="570" height="570" as="geometry" />
        </mxCell>
        <mxCell id="761dnnyQ54j-Cl0NHfQN-8353" value="34" style="rounded=0;whiteSpace=wrap;html=1;fontSize=32;" parent="8HHy5O0NlRH73B9iPDyi-4" vertex="1">
          <mxGeometry x="570" y="810" width="340" height="340" as="geometry" />
        </mxCell>
        <mxCell id="761dnnyQ54j-Cl0NHfQN-8354" value="45" style="rounded=0;whiteSpace=wrap;html=1;fontSize=32;" parent="8HHy5O0NlRH73B9iPDyi-4" vertex="1">
          <mxGeometry x="910" y="700" width="450" height="450" as="geometry" />
        </mxCell>
        <mxCell id="761dnnyQ54j-Cl0NHfQN-8355" value="23" style="rounded=0;whiteSpace=wrap;html=1;fontSize=32;" parent="8HHy5O0NlRH73B9iPDyi-4" vertex="1">
          <mxGeometry x="570" y="580" width="230" height="230" as="geometry" />
        </mxCell>
        <mxCell id="761dnnyQ54j-Cl0NHfQN-8356" value="11" style="rounded=0;whiteSpace=wrap;html=1;fontSize=32;" parent="8HHy5O0NlRH73B9iPDyi-4" vertex="1">
          <mxGeometry x="800" y="700" width="110" height="110" as="geometry" />
        </mxCell>
        <mxCell id="761dnnyQ54j-Cl0NHfQN-8357" value="10" style="rounded=0;whiteSpace=wrap;html=1;fontSize=32;" parent="8HHy5O0NlRH73B9iPDyi-4" vertex="1">
          <mxGeometry x="800" y="600" width="100" height="100" as="geometry" />
        </mxCell>
        <mxCell id="761dnnyQ54j-Cl0NHfQN-8358" value="13" style="rounded=0;whiteSpace=wrap;html=1;fontSize=32;" parent="8HHy5O0NlRH73B9iPDyi-4" vertex="1">
          <mxGeometry x="900" y="570" width="130" height="130" as="geometry" />
        </mxCell>
        <mxCell id="761dnnyQ54j-Cl0NHfQN-8359" value="7" style="rounded=0;whiteSpace=wrap;html=1;fontSize=32;" parent="8HHy5O0NlRH73B9iPDyi-4" vertex="1">
          <mxGeometry x="800" y="530" width="70" height="70" as="geometry" />
        </mxCell>
        <mxCell id="761dnnyQ54j-Cl0NHfQN-8360" value="3" style="rounded=0;whiteSpace=wrap;html=1;fontSize=32;" parent="8HHy5O0NlRH73B9iPDyi-4" vertex="1">
          <mxGeometry x="870" y="570" width="30" height="30" as="geometry" />
        </mxCell>
        <mxCell id="761dnnyQ54j-Cl0NHfQN-8361" value="33" style="rounded=0;whiteSpace=wrap;html=1;fontSize=32;" parent="8HHy5O0NlRH73B9iPDyi-4" vertex="1">
          <mxGeometry x="1030" y="370" width="330" height="330" as="geometry" />
        </mxCell>
        <mxCell id="761dnnyQ54j-Cl0NHfQN-8362" value="16" style="rounded=0;whiteSpace=wrap;html=1;fontSize=32;" parent="8HHy5O0NlRH73B9iPDyi-4" vertex="1">
          <mxGeometry x="870" y="410" width="160" height="160" as="geometry" />
        </mxCell>
        <mxCell id="761dnnyQ54j-Cl0NHfQN-8363" value="58" style="rounded=0;whiteSpace=wrap;html=1;fontSize=32;" parent="8HHy5O0NlRH73B9iPDyi-4" vertex="1">
          <mxGeometry width="580" height="580" as="geometry" />
        </mxCell>
        <mxCell id="761dnnyQ54j-Cl0NHfQN-8364" value="17" style="rounded=0;whiteSpace=wrap;html=1;fontSize=32;" parent="8HHy5O0NlRH73B9iPDyi-4" vertex="1">
          <mxGeometry x="580" y="410" width="170" height="170" as="geometry" />
        </mxCell>
        <mxCell id="761dnnyQ54j-Cl0NHfQN-8365" value="5" style="rounded=0;whiteSpace=wrap;html=1;fontSize=32;" parent="8HHy5O0NlRH73B9iPDyi-4" vertex="1">
          <mxGeometry x="750" y="530" width="50" height="50" as="geometry" />
        </mxCell>
        <mxCell id="761dnnyQ54j-Cl0NHfQN-8366" value="12" style="rounded=0;whiteSpace=wrap;html=1;fontSize=32;" parent="8HHy5O0NlRH73B9iPDyi-4" vertex="1">
          <mxGeometry x="750" y="410" width="120" height="120" as="geometry" />
        </mxCell>
        <mxCell id="761dnnyQ54j-Cl0NHfQN-8367" value="41" style="rounded=0;whiteSpace=wrap;html=1;fontSize=32;" parent="8HHy5O0NlRH73B9iPDyi-4" vertex="1">
          <mxGeometry x="580" width="410" height="410" as="geometry" />
        </mxCell>
        <mxCell id="761dnnyQ54j-Cl0NHfQN-8368" value="4" style="rounded=0;whiteSpace=wrap;html=1;fontSize=32;" parent="8HHy5O0NlRH73B9iPDyi-4" vertex="1">
          <mxGeometry x="990" y="370" width="40" height="40" as="geometry" />
        </mxCell>
        <mxCell id="761dnnyQ54j-Cl0NHfQN-8369" value="37" style="rounded=0;whiteSpace=wrap;html=1;fontSize=32;" parent="8HHy5O0NlRH73B9iPDyi-4" vertex="1">
          <mxGeometry x="990" width="370" height="370" as="geometry" />
        </mxCell>
        <mxCell id="8HHy5O0NlRH73B9iPDyi-5" value="" style="group;flipV=1;" vertex="1" connectable="0" parent="1">
          <mxGeometry x="1460" y="4940" width="1360" height="1150" as="geometry" />
        </mxCell>
        <mxCell id="761dnnyQ54j-Cl0NHfQN-8428" value="57" style="rounded=0;whiteSpace=wrap;html=1;fontSize=32;" parent="8HHy5O0NlRH73B9iPDyi-5" vertex="1">
          <mxGeometry y="580" width="570" height="570" as="geometry" />
        </mxCell>
        <mxCell id="761dnnyQ54j-Cl0NHfQN-8429" value="34" style="rounded=0;whiteSpace=wrap;html=1;fontSize=32;" parent="8HHy5O0NlRH73B9iPDyi-5" vertex="1">
          <mxGeometry x="570" y="810" width="340" height="340" as="geometry" />
        </mxCell>
        <mxCell id="761dnnyQ54j-Cl0NHfQN-8430" value="45" style="rounded=0;whiteSpace=wrap;html=1;fontSize=32;" parent="8HHy5O0NlRH73B9iPDyi-5" vertex="1">
          <mxGeometry x="910" y="700" width="450" height="450" as="geometry" />
        </mxCell>
        <mxCell id="761dnnyQ54j-Cl0NHfQN-8431" value="23" style="rounded=0;whiteSpace=wrap;html=1;fontSize=32;" parent="8HHy5O0NlRH73B9iPDyi-5" vertex="1">
          <mxGeometry x="570" y="580" width="230" height="230" as="geometry" />
        </mxCell>
        <mxCell id="761dnnyQ54j-Cl0NHfQN-8432" value="11" style="rounded=0;whiteSpace=wrap;html=1;fontSize=32;" parent="8HHy5O0NlRH73B9iPDyi-5" vertex="1">
          <mxGeometry x="800" y="700" width="110" height="110" as="geometry" />
        </mxCell>
        <mxCell id="761dnnyQ54j-Cl0NHfQN-8433" value="10" style="rounded=0;whiteSpace=wrap;html=1;fontSize=32;" parent="8HHy5O0NlRH73B9iPDyi-5" vertex="1">
          <mxGeometry x="800" y="600" width="100" height="100" as="geometry" />
        </mxCell>
        <mxCell id="761dnnyQ54j-Cl0NHfQN-8434" value="17" style="rounded=0;whiteSpace=wrap;html=1;fontSize=32;" parent="8HHy5O0NlRH73B9iPDyi-5" vertex="1">
          <mxGeometry x="900" y="530" width="170" height="170" as="geometry" />
        </mxCell>
        <mxCell id="761dnnyQ54j-Cl0NHfQN-8435" value="3" style="rounded=0;whiteSpace=wrap;html=1;fontSize=32;" parent="8HHy5O0NlRH73B9iPDyi-5" vertex="1">
          <mxGeometry x="800" y="570" width="30" height="30" as="geometry" />
        </mxCell>
        <mxCell id="761dnnyQ54j-Cl0NHfQN-8436" value="7" style="rounded=0;whiteSpace=wrap;html=1;fontSize=32;" parent="8HHy5O0NlRH73B9iPDyi-5" vertex="1">
          <mxGeometry x="830" y="530" width="70" height="70" as="geometry" />
        </mxCell>
        <mxCell id="761dnnyQ54j-Cl0NHfQN-8437" value="29" style="rounded=0;whiteSpace=wrap;html=1;fontSize=32;" parent="8HHy5O0NlRH73B9iPDyi-5" vertex="1">
          <mxGeometry x="1070" y="410" width="290" height="290" as="geometry" />
        </mxCell>
        <mxCell id="761dnnyQ54j-Cl0NHfQN-8438" value="58" style="rounded=0;whiteSpace=wrap;html=1;fontSize=32;" parent="8HHy5O0NlRH73B9iPDyi-5" vertex="1">
          <mxGeometry width="580" height="580" as="geometry" />
        </mxCell>
        <mxCell id="761dnnyQ54j-Cl0NHfQN-8439" value="21" style="rounded=0;whiteSpace=wrap;html=1;fontSize=32;" parent="8HHy5O0NlRH73B9iPDyi-5" vertex="1">
          <mxGeometry x="580" y="370" width="210" height="210" as="geometry" />
        </mxCell>
        <mxCell id="761dnnyQ54j-Cl0NHfQN-8440" value="1" style="rounded=0;whiteSpace=wrap;html=1;fontSize=32;" parent="8HHy5O0NlRH73B9iPDyi-5" vertex="1">
          <mxGeometry x="790" y="570" width="10" height="10" as="geometry" />
        </mxCell>
        <mxCell id="761dnnyQ54j-Cl0NHfQN-8441" value="4" style="rounded=0;whiteSpace=wrap;html=1;fontSize=32;" parent="8HHy5O0NlRH73B9iPDyi-5" vertex="1">
          <mxGeometry x="790" y="530" width="40" height="40" as="geometry" />
        </mxCell>
        <mxCell id="761dnnyQ54j-Cl0NHfQN-8442" value="16" style="rounded=0;whiteSpace=wrap;html=1;fontSize=32;" parent="8HHy5O0NlRH73B9iPDyi-5" vertex="1">
          <mxGeometry x="790" y="370" width="160" height="160" as="geometry" />
        </mxCell>
        <mxCell id="761dnnyQ54j-Cl0NHfQN-8443" value="12" style="rounded=0;whiteSpace=wrap;html=1;fontSize=32;" parent="8HHy5O0NlRH73B9iPDyi-5" vertex="1">
          <mxGeometry x="950" y="410" width="120" height="120" as="geometry" />
        </mxCell>
        <mxCell id="761dnnyQ54j-Cl0NHfQN-8444" value="41" style="rounded=0;whiteSpace=wrap;html=1;fontSize=32;" parent="8HHy5O0NlRH73B9iPDyi-5" vertex="1">
          <mxGeometry x="950" width="410" height="410" as="geometry" />
        </mxCell>
        <mxCell id="761dnnyQ54j-Cl0NHfQN-8445" value="37" style="rounded=0;whiteSpace=wrap;html=1;fontSize=32;" parent="8HHy5O0NlRH73B9iPDyi-5" vertex="1">
          <mxGeometry x="580" width="370" height="370" as="geometry" />
        </mxCell>
        <mxCell id="8HHy5O0NlRH73B9iPDyi-6" value="" style="group;flipV=1;" vertex="1" connectable="0" parent="1">
          <mxGeometry x="1450" y="6260" width="1360" height="910" as="geometry" />
        </mxCell>
        <mxCell id="761dnnyQ54j-Cl0NHfQN-8504" value="38" style="rounded=0;whiteSpace=wrap;html=1;fontSize=32;" parent="8HHy5O0NlRH73B9iPDyi-6" vertex="1">
          <mxGeometry y="530" width="380" height="380" as="geometry" />
        </mxCell>
        <mxCell id="761dnnyQ54j-Cl0NHfQN-8505" value="23" style="rounded=0;whiteSpace=wrap;html=1;fontSize=32;" parent="8HHy5O0NlRH73B9iPDyi-6" vertex="1">
          <mxGeometry x="380" y="680" width="230" height="230" as="geometry" />
        </mxCell>
        <mxCell id="761dnnyQ54j-Cl0NHfQN-8506" value="25" style="rounded=0;whiteSpace=wrap;html=1;fontSize=32;" parent="8HHy5O0NlRH73B9iPDyi-6" vertex="1">
          <mxGeometry x="610" y="660" width="250" height="250" as="geometry" />
        </mxCell>
        <mxCell id="761dnnyQ54j-Cl0NHfQN-8507" value="15" style="rounded=0;whiteSpace=wrap;html=1;fontSize=32;" parent="8HHy5O0NlRH73B9iPDyi-6" vertex="1">
          <mxGeometry x="380" y="530" width="150" height="150" as="geometry" />
        </mxCell>
        <mxCell id="761dnnyQ54j-Cl0NHfQN-8508" value="8" style="rounded=0;whiteSpace=wrap;html=1;fontSize=32;" parent="8HHy5O0NlRH73B9iPDyi-6" vertex="1">
          <mxGeometry x="530" y="600" width="80" height="80" as="geometry" />
        </mxCell>
        <mxCell id="761dnnyQ54j-Cl0NHfQN-8509" value="24" style="rounded=0;whiteSpace=wrap;html=1;fontSize=32;" parent="8HHy5O0NlRH73B9iPDyi-6" vertex="1">
          <mxGeometry x="860" y="670" width="240" height="240" as="geometry" />
        </mxCell>
        <mxCell id="761dnnyQ54j-Cl0NHfQN-8510" value="26" style="rounded=0;whiteSpace=wrap;html=1;fontSize=32;" parent="8HHy5O0NlRH73B9iPDyi-6" vertex="1">
          <mxGeometry x="1100" y="650" width="260" height="260" as="geometry" />
        </mxCell>
        <mxCell id="761dnnyQ54j-Cl0NHfQN-8511" value="1" style="rounded=0;whiteSpace=wrap;html=1;fontSize=32;" parent="8HHy5O0NlRH73B9iPDyi-6" vertex="1">
          <mxGeometry x="860" y="660" width="10" height="10" as="geometry" />
        </mxCell>
        <mxCell id="761dnnyQ54j-Cl0NHfQN-8512" value="21" style="rounded=0;whiteSpace=wrap;html=1;fontSize=32;" parent="8HHy5O0NlRH73B9iPDyi-6" vertex="1">
          <mxGeometry x="870" y="460" width="210" height="210" as="geometry" />
        </mxCell>
        <mxCell id="761dnnyQ54j-Cl0NHfQN-8513" value="2" style="rounded=0;whiteSpace=wrap;html=1;fontSize=32;" parent="8HHy5O0NlRH73B9iPDyi-6" vertex="1">
          <mxGeometry x="1080" y="650" width="20" height="20" as="geometry" />
        </mxCell>
        <mxCell id="761dnnyQ54j-Cl0NHfQN-8514" value="6" style="rounded=0;whiteSpace=wrap;html=1;fontSize=32;" parent="8HHy5O0NlRH73B9iPDyi-6" vertex="1">
          <mxGeometry x="610" y="600" width="60" height="60" as="geometry" />
        </mxCell>
        <mxCell id="761dnnyQ54j-Cl0NHfQN-8515" value="20" style="rounded=0;whiteSpace=wrap;html=1;fontSize=32;" parent="8HHy5O0NlRH73B9iPDyi-6" vertex="1">
          <mxGeometry x="670" y="460" width="200" height="200" as="geometry" />
        </mxCell>
        <mxCell id="761dnnyQ54j-Cl0NHfQN-8516" value="14" style="rounded=0;whiteSpace=wrap;html=1;fontSize=32;" parent="8HHy5O0NlRH73B9iPDyi-6" vertex="1">
          <mxGeometry x="530" y="460" width="140" height="140" as="geometry" />
        </mxCell>
        <mxCell id="761dnnyQ54j-Cl0NHfQN-8517" value="28" style="rounded=0;whiteSpace=wrap;html=1;fontSize=32;" parent="8HHy5O0NlRH73B9iPDyi-6" vertex="1">
          <mxGeometry x="1080" y="370" width="280" height="280" as="geometry" />
        </mxCell>
        <mxCell id="761dnnyQ54j-Cl0NHfQN-8518" value="53" style="rounded=0;whiteSpace=wrap;html=1;fontSize=32;" parent="8HHy5O0NlRH73B9iPDyi-6" vertex="1">
          <mxGeometry width="530" height="530" as="geometry" />
        </mxCell>
        <mxCell id="761dnnyQ54j-Cl0NHfQN-8519" value="46" style="rounded=0;whiteSpace=wrap;html=1;fontSize=32;" parent="8HHy5O0NlRH73B9iPDyi-6" vertex="1">
          <mxGeometry x="530" width="460" height="460" as="geometry" />
        </mxCell>
        <mxCell id="761dnnyQ54j-Cl0NHfQN-8520" value="9" style="rounded=0;whiteSpace=wrap;html=1;fontSize=32;" parent="8HHy5O0NlRH73B9iPDyi-6" vertex="1">
          <mxGeometry x="990" y="370" width="90" height="90" as="geometry" />
        </mxCell>
        <mxCell id="761dnnyQ54j-Cl0NHfQN-8521" value="37" style="rounded=0;whiteSpace=wrap;html=1;fontSize=32;" parent="8HHy5O0NlRH73B9iPDyi-6" vertex="1">
          <mxGeometry x="990" width="370" height="370" as="geometry" />
        </mxCell>
        <mxCell id="8HHy5O0NlRH73B9iPDyi-7" value="" style="group;flipV=1;" vertex="1" connectable="0" parent="1">
          <mxGeometry x="1450" y="7290" width="1360" height="1000" as="geometry" />
        </mxCell>
        <mxCell id="761dnnyQ54j-Cl0NHfQN-17754" value="30" style="rounded=0;whiteSpace=wrap;html=1;fontSize=32;" parent="8HHy5O0NlRH73B9iPDyi-7" vertex="1">
          <mxGeometry y="700" width="300" height="300" as="geometry" />
        </mxCell>
        <mxCell id="761dnnyQ54j-Cl0NHfQN-17755" value="23" style="rounded=0;whiteSpace=wrap;html=1;fontSize=32;" parent="8HHy5O0NlRH73B9iPDyi-7" vertex="1">
          <mxGeometry x="300" y="770" width="230" height="230" as="geometry" />
        </mxCell>
        <mxCell id="761dnnyQ54j-Cl0NHfQN-17756" value="47" style="rounded=0;whiteSpace=wrap;html=1;fontSize=32;" parent="8HHy5O0NlRH73B9iPDyi-7" vertex="1">
          <mxGeometry x="530" y="530" width="470" height="470" as="geometry" />
        </mxCell>
        <mxCell id="761dnnyQ54j-Cl0NHfQN-17757" value="8" style="rounded=0;whiteSpace=wrap;html=1;fontSize=32;" parent="8HHy5O0NlRH73B9iPDyi-7" vertex="1">
          <mxGeometry x="300" y="690" width="80" height="80" as="geometry" />
        </mxCell>
        <mxCell id="761dnnyQ54j-Cl0NHfQN-17758" value="15" style="rounded=0;whiteSpace=wrap;html=1;fontSize=32;" parent="8HHy5O0NlRH73B9iPDyi-7" vertex="1">
          <mxGeometry x="380" y="620" width="150" height="150" as="geometry" />
        </mxCell>
        <mxCell id="761dnnyQ54j-Cl0NHfQN-17759" value="26" style="rounded=0;whiteSpace=wrap;html=1;fontSize=32;" parent="8HHy5O0NlRH73B9iPDyi-7" vertex="1">
          <mxGeometry y="440" width="260" height="260" as="geometry" />
        </mxCell>
        <mxCell id="761dnnyQ54j-Cl0NHfQN-17760" value="3" style="rounded=0;whiteSpace=wrap;html=1;fontSize=32;" parent="8HHy5O0NlRH73B9iPDyi-7" vertex="1">
          <mxGeometry x="260" y="670" width="30" height="30" as="geometry" />
        </mxCell>
        <mxCell id="761dnnyQ54j-Cl0NHfQN-17761" value="1" style="rounded=0;whiteSpace=wrap;html=1;fontSize=32;" parent="8HHy5O0NlRH73B9iPDyi-7" vertex="1">
          <mxGeometry x="290" y="690" width="10" height="10" as="geometry" />
        </mxCell>
        <mxCell id="761dnnyQ54j-Cl0NHfQN-17762" value="2" style="rounded=0;whiteSpace=wrap;html=1;fontSize=32;" parent="8HHy5O0NlRH73B9iPDyi-7" vertex="1">
          <mxGeometry x="290" y="670" width="20" height="20" as="geometry" />
        </mxCell>
        <mxCell id="761dnnyQ54j-Cl0NHfQN-17763" value="7" style="rounded=0;whiteSpace=wrap;html=1;fontSize=32;" parent="8HHy5O0NlRH73B9iPDyi-7" vertex="1">
          <mxGeometry x="310" y="620" width="70" height="70" as="geometry" />
        </mxCell>
        <mxCell id="761dnnyQ54j-Cl0NHfQN-17764" value="5" style="rounded=0;whiteSpace=wrap;html=1;fontSize=32;" parent="8HHy5O0NlRH73B9iPDyi-7" vertex="1">
          <mxGeometry x="260" y="620" width="50" height="50" as="geometry" />
        </mxCell>
        <mxCell id="761dnnyQ54j-Cl0NHfQN-17765" value="18" style="rounded=0;whiteSpace=wrap;html=1;fontSize=32;" parent="8HHy5O0NlRH73B9iPDyi-7" vertex="1">
          <mxGeometry x="260" y="440" width="180" height="180" as="geometry" />
        </mxCell>
        <mxCell id="761dnnyQ54j-Cl0NHfQN-17766" value="9" style="rounded=0;whiteSpace=wrap;html=1;fontSize=32;" parent="8HHy5O0NlRH73B9iPDyi-7" vertex="1">
          <mxGeometry x="440" y="530" width="90" height="90" as="geometry" />
        </mxCell>
        <mxCell id="761dnnyQ54j-Cl0NHfQN-17767" value="36" style="rounded=0;whiteSpace=wrap;html=1;fontSize=32;" parent="8HHy5O0NlRH73B9iPDyi-7" vertex="1">
          <mxGeometry x="1000" y="640" width="360" height="360" as="geometry" />
        </mxCell>
        <mxCell id="761dnnyQ54j-Cl0NHfQN-17768" value="11" style="rounded=0;whiteSpace=wrap;html=1;fontSize=32;" parent="8HHy5O0NlRH73B9iPDyi-7" vertex="1">
          <mxGeometry x="1000" y="530" width="110" height="110" as="geometry" />
        </mxCell>
        <mxCell id="761dnnyQ54j-Cl0NHfQN-17769" value="25" style="rounded=0;whiteSpace=wrap;html=1;fontSize=32;" parent="8HHy5O0NlRH73B9iPDyi-7" vertex="1">
          <mxGeometry x="1110" y="390" width="250" height="250" as="geometry" />
        </mxCell>
        <mxCell id="761dnnyQ54j-Cl0NHfQN-17770" value="53" style="rounded=0;whiteSpace=wrap;html=1;fontSize=32;" parent="8HHy5O0NlRH73B9iPDyi-7" vertex="1">
          <mxGeometry x="440" width="530" height="530" as="geometry" />
        </mxCell>
        <mxCell id="761dnnyQ54j-Cl0NHfQN-17771" value="14" style="rounded=0;whiteSpace=wrap;html=1;fontSize=32;" parent="8HHy5O0NlRH73B9iPDyi-7" vertex="1">
          <mxGeometry x="970" y="390" width="140" height="140" as="geometry" />
        </mxCell>
        <mxCell id="761dnnyQ54j-Cl0NHfQN-17772" value="39" style="rounded=0;whiteSpace=wrap;html=1;fontSize=32;" parent="8HHy5O0NlRH73B9iPDyi-7" vertex="1">
          <mxGeometry x="970" width="390" height="390" as="geometry" />
        </mxCell>
        <mxCell id="761dnnyQ54j-Cl0NHfQN-17773" value="44" style="rounded=0;whiteSpace=wrap;html=1;fontSize=32;" parent="8HHy5O0NlRH73B9iPDyi-7" vertex="1">
          <mxGeometry width="440" height="440" as="geometry" />
        </mxCell>
        <mxCell id="8HHy5O0NlRH73B9iPDyi-8" value="" style="group;flipV=1;" vertex="1" connectable="0" parent="1">
          <mxGeometry x="1460" y="8450" width="1360" height="1120" as="geometry" />
        </mxCell>
        <mxCell id="761dnnyQ54j-Cl0NHfQN-39697" value="27" style="rounded=0;whiteSpace=wrap;html=1;fontSize=32;fillColor=#C3ABD0;strokeColor=#9673a6;" parent="8HHy5O0NlRH73B9iPDyi-8" vertex="1">
          <mxGeometry y="850" width="270" height="270" as="geometry" />
        </mxCell>
        <mxCell id="761dnnyQ54j-Cl0NHfQN-39698" value="13" style="rounded=0;whiteSpace=wrap;html=1;fontSize=32;fillColor=#C3ABD0;strokeColor=#9673a6;" parent="8HHy5O0NlRH73B9iPDyi-8" vertex="1">
          <mxGeometry x="270" y="990" width="130" height="130" as="geometry" />
        </mxCell>
        <mxCell id="761dnnyQ54j-Cl0NHfQN-39699" value="15" style="rounded=0;whiteSpace=wrap;html=1;fontSize=32;fillColor=#C3ABD0;strokeColor=#9673a6;" parent="8HHy5O0NlRH73B9iPDyi-8" vertex="1">
          <mxGeometry x="400" y="970" width="150" height="150" as="geometry" />
        </mxCell>
        <mxCell id="761dnnyQ54j-Cl0NHfQN-39700" value="11" style="rounded=0;whiteSpace=wrap;html=1;fontSize=32;fillColor=#C3ABD0;strokeColor=#9673a6;" parent="8HHy5O0NlRH73B9iPDyi-8" vertex="1">
          <mxGeometry x="270" y="880" width="110" height="110" as="geometry" />
        </mxCell>
        <mxCell id="761dnnyQ54j-Cl0NHfQN-39701" value="2" style="rounded=0;whiteSpace=wrap;html=1;fontSize=32;fillColor=#C3ABD0;strokeColor=#9673a6;" parent="8HHy5O0NlRH73B9iPDyi-8" vertex="1">
          <mxGeometry x="380" y="970" width="20" height="20" as="geometry" />
        </mxCell>
        <mxCell id="761dnnyQ54j-Cl0NHfQN-39702" value="40" style="rounded=0;whiteSpace=wrap;html=1;fontSize=32;fillColor=#dae8fc;strokeColor=#6c8ebf;" parent="8HHy5O0NlRH73B9iPDyi-8" vertex="1">
          <mxGeometry x="550" y="720" width="400" height="400" as="geometry" />
        </mxCell>
        <mxCell id="761dnnyQ54j-Cl0NHfQN-39703" value="17" style="rounded=0;whiteSpace=wrap;html=1;fontSize=32;fillColor=#C3ABD0;strokeColor=#9673a6;" parent="8HHy5O0NlRH73B9iPDyi-8" vertex="1">
          <mxGeometry x="380" y="800" width="170" height="170" as="geometry" />
        </mxCell>
        <mxCell id="761dnnyQ54j-Cl0NHfQN-39704" value="3" style="rounded=0;whiteSpace=wrap;html=1;fontSize=32;fillColor=#C3ABD0;strokeColor=#9673a6;" parent="8HHy5O0NlRH73B9iPDyi-8" vertex="1">
          <mxGeometry x="270" y="850" width="30" height="30" as="geometry" />
        </mxCell>
        <mxCell id="761dnnyQ54j-Cl0NHfQN-39705" value="8" style="rounded=0;whiteSpace=wrap;html=1;fontSize=32;fillColor=#C3ABD0;strokeColor=#9673a6;" parent="8HHy5O0NlRH73B9iPDyi-8" vertex="1">
          <mxGeometry x="300" y="800" width="80" height="80" as="geometry" />
        </mxCell>
        <mxCell id="761dnnyQ54j-Cl0NHfQN-39706" value="30" style="rounded=0;whiteSpace=wrap;html=1;fontSize=32;fillColor=#C3ABD0;strokeColor=#9673a6;" parent="8HHy5O0NlRH73B9iPDyi-8" vertex="1">
          <mxGeometry y="550" width="300" height="300" as="geometry" />
        </mxCell>
        <mxCell id="761dnnyQ54j-Cl0NHfQN-39707" value="25" style="rounded=0;whiteSpace=wrap;html=1;fontSize=32;fillColor=#C3ABD0;strokeColor=#9673a6;" parent="8HHy5O0NlRH73B9iPDyi-8" vertex="1">
          <mxGeometry x="300" y="550" width="250" height="250" as="geometry" />
        </mxCell>
        <mxCell id="761dnnyQ54j-Cl0NHfQN-39708" value="41" style="rounded=0;whiteSpace=wrap;html=1;fontSize=32;fillColor=#dae8fc;strokeColor=#6c8ebf;" parent="8HHy5O0NlRH73B9iPDyi-8" vertex="1">
          <mxGeometry x="950" y="710" width="410" height="410" as="geometry" />
        </mxCell>
        <mxCell id="761dnnyQ54j-Cl0NHfQN-39709" value="29" style="rounded=0;whiteSpace=wrap;html=1;fontSize=32;fillColor=#dae8fc;strokeColor=#6c8ebf;" parent="8HHy5O0NlRH73B9iPDyi-8" vertex="1">
          <mxGeometry x="550" y="430" width="290" height="290" as="geometry" />
        </mxCell>
        <mxCell id="761dnnyQ54j-Cl0NHfQN-39710" value="10" style="rounded=0;whiteSpace=wrap;html=1;fontSize=32;fillColor=#dae8fc;strokeColor=#6c8ebf;" parent="8HHy5O0NlRH73B9iPDyi-8" vertex="1">
          <mxGeometry x="840" y="620" width="100" height="100" as="geometry" />
        </mxCell>
        <mxCell id="761dnnyQ54j-Cl0NHfQN-39711" value="1" style="rounded=0;whiteSpace=wrap;html=1;fontSize=32;fillColor=#dae8fc;strokeColor=#6c8ebf;" parent="8HHy5O0NlRH73B9iPDyi-8" vertex="1">
          <mxGeometry x="940" y="710" width="10" height="10" as="geometry" />
        </mxCell>
        <mxCell id="761dnnyQ54j-Cl0NHfQN-39712" value="9" style="rounded=0;whiteSpace=wrap;html=1;fontSize=32;fillColor=#dae8fc;strokeColor=#6c8ebf;" parent="8HHy5O0NlRH73B9iPDyi-8" vertex="1">
          <mxGeometry x="940" y="620" width="90" height="90" as="geometry" />
        </mxCell>
        <mxCell id="761dnnyQ54j-Cl0NHfQN-39713" value="33" style="rounded=0;whiteSpace=wrap;html=1;fontSize=32;fillColor=#dae8fc;strokeColor=#6c8ebf;" parent="8HHy5O0NlRH73B9iPDyi-8" vertex="1">
          <mxGeometry x="1030" y="380" width="330" height="330" as="geometry" />
        </mxCell>
        <mxCell id="761dnnyQ54j-Cl0NHfQN-39714" value="19" style="rounded=0;whiteSpace=wrap;html=1;fontSize=32;fillColor=#dae8fc;strokeColor=#6c8ebf;" parent="8HHy5O0NlRH73B9iPDyi-8" vertex="1">
          <mxGeometry x="840" y="430" width="190" height="190" as="geometry" />
        </mxCell>
        <mxCell id="761dnnyQ54j-Cl0NHfQN-39715" value="55" style="rounded=0;whiteSpace=wrap;html=1;fontSize=32;fillColor=#e1d5e7;strokeColor=#9673a6;" parent="8HHy5O0NlRH73B9iPDyi-8" vertex="1">
          <mxGeometry width="550" height="550" as="geometry" />
        </mxCell>
        <mxCell id="761dnnyQ54j-Cl0NHfQN-39716" value="43" style="rounded=0;whiteSpace=wrap;html=1;fontSize=32;fillColor=#dae8fc;strokeColor=#6c8ebf;" parent="8HHy5O0NlRH73B9iPDyi-8" vertex="1">
          <mxGeometry x="550" width="430" height="430" as="geometry" />
        </mxCell>
        <mxCell id="761dnnyQ54j-Cl0NHfQN-39717" value="5" style="rounded=0;whiteSpace=wrap;html=1;fontSize=32;fillColor=#dae8fc;strokeColor=#6c8ebf;" parent="8HHy5O0NlRH73B9iPDyi-8" vertex="1">
          <mxGeometry x="980" y="380" width="50" height="50" as="geometry" />
        </mxCell>
        <mxCell id="761dnnyQ54j-Cl0NHfQN-39718" value="38" style="rounded=0;whiteSpace=wrap;html=1;fontSize=32;fillColor=#dae8fc;strokeColor=#6c8ebf;" parent="8HHy5O0NlRH73B9iPDyi-8" vertex="1">
          <mxGeometry x="980" width="380" height="380" as="geometry" />
        </mxCell>
        <mxCell id="8HHy5O0NlRH73B9iPDyi-9" value="" style="group;flipV=1;" vertex="1" connectable="0" parent="1">
          <mxGeometry x="1450" y="9740" width="1360" height="1000" as="geometry" />
        </mxCell>
        <mxCell id="761dnnyQ54j-Cl0NHfQN-41008" value="48" style="rounded=0;whiteSpace=wrap;html=1;fontSize=32;" parent="8HHy5O0NlRH73B9iPDyi-9" vertex="1">
          <mxGeometry y="520" width="480" height="480" as="geometry" />
        </mxCell>
        <mxCell id="761dnnyQ54j-Cl0NHfQN-41009" value="25" style="rounded=0;whiteSpace=wrap;html=1;fontSize=32;" parent="8HHy5O0NlRH73B9iPDyi-9" vertex="1">
          <mxGeometry x="480" y="750" width="250" height="250" as="geometry" />
        </mxCell>
        <mxCell id="761dnnyQ54j-Cl0NHfQN-41010" value="11" style="rounded=0;whiteSpace=wrap;html=1;fontSize=32;" parent="8HHy5O0NlRH73B9iPDyi-9" vertex="1">
          <mxGeometry x="730" y="890" width="110" height="110" as="geometry" />
        </mxCell>
        <mxCell id="761dnnyQ54j-Cl0NHfQN-41011" value="8" style="rounded=0;whiteSpace=wrap;html=1;fontSize=32;" parent="8HHy5O0NlRH73B9iPDyi-9" vertex="1">
          <mxGeometry x="840" y="920" width="80" height="80" as="geometry" />
        </mxCell>
        <mxCell id="761dnnyQ54j-Cl0NHfQN-41012" value="13" style="rounded=0;whiteSpace=wrap;html=1;fontSize=32;" parent="8HHy5O0NlRH73B9iPDyi-9" vertex="1">
          <mxGeometry x="920" y="870" width="130" height="130" as="geometry" />
        </mxCell>
        <mxCell id="761dnnyQ54j-Cl0NHfQN-41013" value="3" style="rounded=0;whiteSpace=wrap;html=1;fontSize=32;" parent="8HHy5O0NlRH73B9iPDyi-9" vertex="1">
          <mxGeometry x="840" y="890" width="30" height="30" as="geometry" />
        </mxCell>
        <mxCell id="761dnnyQ54j-Cl0NHfQN-41014" value="5" style="rounded=0;whiteSpace=wrap;html=1;fontSize=32;" parent="8HHy5O0NlRH73B9iPDyi-9" vertex="1">
          <mxGeometry x="870" y="870" width="50" height="50" as="geometry" />
        </mxCell>
        <mxCell id="761dnnyQ54j-Cl0NHfQN-41015" value="14" style="rounded=0;whiteSpace=wrap;html=1;fontSize=32;" parent="8HHy5O0NlRH73B9iPDyi-9" vertex="1">
          <mxGeometry x="730" y="750" width="140" height="140" as="geometry" />
        </mxCell>
        <mxCell id="761dnnyQ54j-Cl0NHfQN-41016" value="31" style="rounded=0;whiteSpace=wrap;html=1;fontSize=32;" parent="8HHy5O0NlRH73B9iPDyi-9" vertex="1">
          <mxGeometry x="1050" y="690" width="310" height="310" as="geometry" />
        </mxCell>
        <mxCell id="761dnnyQ54j-Cl0NHfQN-41017" value="18" style="rounded=0;whiteSpace=wrap;html=1;fontSize=32;" parent="8HHy5O0NlRH73B9iPDyi-9" vertex="1">
          <mxGeometry x="870" y="690" width="180" height="180" as="geometry" />
        </mxCell>
        <mxCell id="761dnnyQ54j-Cl0NHfQN-41018" value="23" style="rounded=0;whiteSpace=wrap;html=1;fontSize=32;" parent="8HHy5O0NlRH73B9iPDyi-9" vertex="1">
          <mxGeometry x="480" y="520" width="230" height="230" as="geometry" />
        </mxCell>
        <mxCell id="761dnnyQ54j-Cl0NHfQN-41019" value="16" style="rounded=0;whiteSpace=wrap;html=1;fontSize=32;" parent="8HHy5O0NlRH73B9iPDyi-9" vertex="1">
          <mxGeometry x="710" y="590" width="160" height="160" as="geometry" />
        </mxCell>
        <mxCell id="761dnnyQ54j-Cl0NHfQN-41020" value="10" style="rounded=0;whiteSpace=wrap;html=1;fontSize=32;" parent="8HHy5O0NlRH73B9iPDyi-9" vertex="1">
          <mxGeometry x="870" y="590" width="100" height="100" as="geometry" />
        </mxCell>
        <mxCell id="761dnnyQ54j-Cl0NHfQN-41021" value="39" style="rounded=0;whiteSpace=wrap;html=1;fontSize=32;" parent="8HHy5O0NlRH73B9iPDyi-9" vertex="1">
          <mxGeometry x="970" y="300" width="390" height="390" as="geometry" />
        </mxCell>
        <mxCell id="761dnnyQ54j-Cl0NHfQN-41022" value="26" style="rounded=0;whiteSpace=wrap;html=1;fontSize=32;" parent="8HHy5O0NlRH73B9iPDyi-9" vertex="1">
          <mxGeometry x="710" y="330" width="260" height="260" as="geometry" />
        </mxCell>
        <mxCell id="761dnnyQ54j-Cl0NHfQN-41023" value="52" style="rounded=0;whiteSpace=wrap;html=1;fontSize=32;" parent="8HHy5O0NlRH73B9iPDyi-9" vertex="1">
          <mxGeometry width="520" height="520" as="geometry" />
        </mxCell>
        <mxCell id="761dnnyQ54j-Cl0NHfQN-41024" value="19" style="rounded=0;whiteSpace=wrap;html=1;fontSize=32;" parent="8HHy5O0NlRH73B9iPDyi-9" vertex="1">
          <mxGeometry x="520" y="330" width="190" height="190" as="geometry" />
        </mxCell>
        <mxCell id="761dnnyQ54j-Cl0NHfQN-41025" value="33" style="rounded=0;whiteSpace=wrap;html=1;fontSize=32;" parent="8HHy5O0NlRH73B9iPDyi-9" vertex="1">
          <mxGeometry x="520" width="330" height="330" as="geometry" />
        </mxCell>
        <mxCell id="761dnnyQ54j-Cl0NHfQN-41026" value="12" style="rounded=0;whiteSpace=wrap;html=1;fontSize=32;" parent="8HHy5O0NlRH73B9iPDyi-9" vertex="1">
          <mxGeometry x="850" y="210" width="120" height="120" as="geometry" />
        </mxCell>
        <mxCell id="761dnnyQ54j-Cl0NHfQN-41027" value="9" style="rounded=0;whiteSpace=wrap;html=1;fontSize=32;" parent="8HHy5O0NlRH73B9iPDyi-9" vertex="1">
          <mxGeometry x="970" y="210" width="90" height="90" as="geometry" />
        </mxCell>
        <mxCell id="761dnnyQ54j-Cl0NHfQN-41028" value="30" style="rounded=0;whiteSpace=wrap;html=1;fontSize=32;" parent="8HHy5O0NlRH73B9iPDyi-9" vertex="1">
          <mxGeometry x="1060" width="300" height="300" as="geometry" />
        </mxCell>
        <mxCell id="761dnnyQ54j-Cl0NHfQN-41029" value="21" style="rounded=0;whiteSpace=wrap;html=1;fontSize=32;" parent="8HHy5O0NlRH73B9iPDyi-9" vertex="1">
          <mxGeometry x="850" width="210" height="210" as="geometry" />
        </mxCell>
      </root>
    </mxGraphModel>
  </diagram>
</mxfile>
